<mxfile host="app.diagrams.net" agent="Mozilla/5.0 (X11; Linux x86_64) AppleWebKit/537.36 (KHTML, like Gecko) Chrome/134.0.0.0 Safari/537.36" version="26.0.16">
  <diagram name="Pagina-1" id="q0dWU3GEq5jUtGSzfW-d">
    <mxGraphModel dx="1185" dy="626" grid="1" gridSize="10" guides="1" tooltips="1" connect="1" arrows="1" fold="1" page="1" pageScale="1" pageWidth="827" pageHeight="1169" math="0" shadow="0">
      <root>
        <mxCell id="0" />
        <mxCell id="1" parent="0" />
        <mxCell id="ojFCDxmx5VOatYl41Mf3-44" value="" style="rounded=0;whiteSpace=wrap;html=1;fillColor=none;dashed=1;strokeWidth=2;" vertex="1" parent="1">
          <mxGeometry x="40" y="60" width="560" height="440" as="geometry" />
        </mxCell>
        <mxCell id="ojFCDxmx5VOatYl41Mf3-42" style="edgeStyle=orthogonalEdgeStyle;rounded=0;orthogonalLoop=1;jettySize=auto;html=1;exitX=1;exitY=0.5;exitDx=0;exitDy=0;entryX=0;entryY=0.75;entryDx=0;entryDy=0;curved=1;endArrow=none;startFill=0;" edge="1" parent="1" source="ojFCDxmx5VOatYl41Mf3-1" target="ojFCDxmx5VOatYl41Mf3-3">
          <mxGeometry relative="1" as="geometry">
            <Array as="points">
              <mxPoint x="370" y="440" />
              <mxPoint x="370" y="296" />
            </Array>
          </mxGeometry>
        </mxCell>
        <mxCell id="ojFCDxmx5VOatYl41Mf3-1" value="&lt;font face=&quot;Courier New&quot;&gt;MIR&lt;br&gt;Service&lt;/font&gt;" style="shape=hexagon;perimeter=hexagonPerimeter2;whiteSpace=wrap;html=1;fixedSize=1;fillColor=#e1d5e7;strokeColor=#9673a6;" vertex="1" parent="1">
          <mxGeometry x="150" y="400" width="90" height="80" as="geometry" />
        </mxCell>
        <mxCell id="ojFCDxmx5VOatYl41Mf3-29" style="edgeStyle=orthogonalEdgeStyle;rounded=0;orthogonalLoop=1;jettySize=auto;html=1;exitX=0.5;exitY=0;exitDx=0;exitDy=0;entryX=0.5;entryY=1;entryDx=0;entryDy=0;curved=1;endArrow=none;startFill=0;" edge="1" parent="1" source="ojFCDxmx5VOatYl41Mf3-2" target="ojFCDxmx5VOatYl41Mf3-3">
          <mxGeometry relative="1" as="geometry" />
        </mxCell>
        <mxCell id="ojFCDxmx5VOatYl41Mf3-2" value="&lt;font face=&quot;Courier New&quot;&gt;Spot&lt;br&gt;Service&lt;/font&gt;" style="shape=hexagon;perimeter=hexagonPerimeter2;whiteSpace=wrap;html=1;fixedSize=1;fillColor=#dae8fc;strokeColor=#6c8ebf;" vertex="1" parent="1">
          <mxGeometry x="400" y="400" width="90" height="80" as="geometry" />
        </mxCell>
        <mxCell id="ojFCDxmx5VOatYl41Mf3-27" style="edgeStyle=orthogonalEdgeStyle;rounded=0;orthogonalLoop=1;jettySize=auto;html=1;exitX=0;exitY=0.5;exitDx=0;exitDy=0;entryX=1;entryY=0.5;entryDx=0;entryDy=0;endArrow=none;startFill=0;" edge="1" parent="1" source="ojFCDxmx5VOatYl41Mf3-3" target="ojFCDxmx5VOatYl41Mf3-4">
          <mxGeometry relative="1" as="geometry" />
        </mxCell>
        <mxCell id="ojFCDxmx5VOatYl41Mf3-3" value="&lt;font face=&quot;Courier New&quot;&gt;Service&lt;br&gt;Registry&lt;/font&gt;" style="shape=hexagon;perimeter=hexagonPerimeter2;whiteSpace=wrap;html=1;fixedSize=1;fillColor=#ffe6cc;strokeColor=#d79b00;" vertex="1" parent="1">
          <mxGeometry x="430" y="240" width="90" height="80" as="geometry" />
        </mxCell>
        <mxCell id="ojFCDxmx5VOatYl41Mf3-33" style="edgeStyle=orthogonalEdgeStyle;rounded=0;orthogonalLoop=1;jettySize=auto;html=1;exitX=0.625;exitY=1;exitDx=0;exitDy=0;entryX=0;entryY=0.25;entryDx=0;entryDy=0;curved=1;endArrow=none;startFill=0;" edge="1" parent="1" source="ojFCDxmx5VOatYl41Mf3-4" target="ojFCDxmx5VOatYl41Mf3-2">
          <mxGeometry relative="1" as="geometry">
            <Array as="points">
              <mxPoint x="270" y="424" />
            </Array>
          </mxGeometry>
        </mxCell>
        <mxCell id="ojFCDxmx5VOatYl41Mf3-43" style="edgeStyle=orthogonalEdgeStyle;rounded=0;orthogonalLoop=1;jettySize=auto;html=1;exitX=1;exitY=0.25;exitDx=0;exitDy=0;entryX=0.75;entryY=1;entryDx=0;entryDy=0;curved=1;endArrow=none;startFill=0;" edge="1" parent="1" source="ojFCDxmx5VOatYl41Mf3-4" target="ojFCDxmx5VOatYl41Mf3-10">
          <mxGeometry relative="1" as="geometry">
            <Array as="points">
              <mxPoint x="440" y="262" />
            </Array>
          </mxGeometry>
        </mxCell>
        <mxCell id="ojFCDxmx5VOatYl41Mf3-4" value="" style="shape=hexagon;perimeter=hexagonPerimeter2;whiteSpace=wrap;html=1;fixedSize=1;fillColor=#d5e8d4;strokeColor=#82b366;" vertex="1" parent="1">
          <mxGeometry x="120" y="240" width="240" height="80" as="geometry" />
        </mxCell>
        <mxCell id="ojFCDxmx5VOatYl41Mf3-5" value="&lt;font face=&quot;Courier New&quot;&gt;Position&lt;br&gt;Manager&lt;/font&gt;" style="rounded=1;whiteSpace=wrap;html=1;" vertex="1" parent="1">
          <mxGeometry x="140" y="269" width="80" height="40" as="geometry" />
        </mxCell>
        <mxCell id="ojFCDxmx5VOatYl41Mf3-6" value="&lt;font face=&quot;Courier New&quot;&gt;Action&lt;br&gt;Manager&lt;/font&gt;" style="rounded=1;whiteSpace=wrap;html=1;" vertex="1" parent="1">
          <mxGeometry x="260" y="269" width="80" height="40" as="geometry" />
        </mxCell>
        <mxCell id="ojFCDxmx5VOatYl41Mf3-7" value="&lt;font face=&quot;Courier New&quot;&gt;Map&lt;br&gt;Service&lt;/font&gt;" style="shape=hexagon;perimeter=hexagonPerimeter2;whiteSpace=wrap;html=1;fixedSize=1;opacity=50;textOpacity=50;" vertex="1" parent="1">
          <mxGeometry x="120" y="120" width="90" height="80" as="geometry" />
        </mxCell>
        <mxCell id="ojFCDxmx5VOatYl41Mf3-8" value="&lt;font face=&quot;Courier New&quot;&gt;Group&lt;br&gt;Mission&lt;br&gt;Service&lt;/font&gt;" style="shape=hexagon;perimeter=hexagonPerimeter2;whiteSpace=wrap;html=1;fixedSize=1;opacity=50;textOpacity=50;" vertex="1" parent="1">
          <mxGeometry x="235" y="120" width="90" height="80" as="geometry" />
        </mxCell>
        <mxCell id="ojFCDxmx5VOatYl41Mf3-9" value="&lt;font face=&quot;Courier New&quot;&gt;Robot Service&lt;/font&gt;" style="text;html=1;align=center;verticalAlign=middle;whiteSpace=wrap;rounded=0;" vertex="1" parent="1">
          <mxGeometry x="195" y="244" width="100" height="20" as="geometry" />
        </mxCell>
        <mxCell id="ojFCDxmx5VOatYl41Mf3-17" style="edgeStyle=orthogonalEdgeStyle;rounded=0;orthogonalLoop=1;jettySize=auto;html=1;exitX=0.5;exitY=0;exitDx=0;exitDy=0;entryX=0.375;entryY=1;entryDx=0;entryDy=0;endArrow=none;startFill=0;curved=1;" edge="1" parent="1" source="ojFCDxmx5VOatYl41Mf3-11" target="ojFCDxmx5VOatYl41Mf3-1">
          <mxGeometry relative="1" as="geometry" />
        </mxCell>
        <mxCell id="ojFCDxmx5VOatYl41Mf3-11" value="&lt;font style=&quot;font-size: 6px;&quot;&gt;MIR 1&lt;/font&gt;" style="rhombus;whiteSpace=wrap;html=1;" vertex="1" parent="1">
          <mxGeometry x="120" y="560" width="40" height="40" as="geometry" />
        </mxCell>
        <mxCell id="ojFCDxmx5VOatYl41Mf3-18" style="edgeStyle=orthogonalEdgeStyle;rounded=0;orthogonalLoop=1;jettySize=auto;html=1;exitX=0.5;exitY=0;exitDx=0;exitDy=0;entryX=0.5;entryY=1;entryDx=0;entryDy=0;curved=1;endArrow=none;startFill=0;" edge="1" parent="1" source="ojFCDxmx5VOatYl41Mf3-12" target="ojFCDxmx5VOatYl41Mf3-1">
          <mxGeometry relative="1" as="geometry" />
        </mxCell>
        <mxCell id="ojFCDxmx5VOatYl41Mf3-12" value="&lt;font style=&quot;font-size: 6px;&quot;&gt;MIR 2&lt;/font&gt;" style="rhombus;whiteSpace=wrap;html=1;" vertex="1" parent="1">
          <mxGeometry x="175" y="560" width="40" height="40" as="geometry" />
        </mxCell>
        <mxCell id="ojFCDxmx5VOatYl41Mf3-19" style="edgeStyle=orthogonalEdgeStyle;rounded=0;orthogonalLoop=1;jettySize=auto;html=1;exitX=0.5;exitY=0;exitDx=0;exitDy=0;entryX=0.625;entryY=1;entryDx=0;entryDy=0;curved=1;endArrow=none;startFill=0;" edge="1" parent="1" source="ojFCDxmx5VOatYl41Mf3-13" target="ojFCDxmx5VOatYl41Mf3-1">
          <mxGeometry relative="1" as="geometry" />
        </mxCell>
        <mxCell id="ojFCDxmx5VOatYl41Mf3-13" value="&lt;font style=&quot;font-size: 6px;&quot;&gt;MIR N&lt;/font&gt;" style="rhombus;whiteSpace=wrap;html=1;" vertex="1" parent="1">
          <mxGeometry x="240" y="560" width="40" height="40" as="geometry" />
        </mxCell>
        <mxCell id="ojFCDxmx5VOatYl41Mf3-23" style="edgeStyle=orthogonalEdgeStyle;rounded=0;orthogonalLoop=1;jettySize=auto;html=1;exitX=0.5;exitY=0;exitDx=0;exitDy=0;entryX=0.375;entryY=1;entryDx=0;entryDy=0;curved=1;endArrow=none;startFill=0;" edge="1" parent="1" source="ojFCDxmx5VOatYl41Mf3-14" target="ojFCDxmx5VOatYl41Mf3-2">
          <mxGeometry relative="1" as="geometry" />
        </mxCell>
        <mxCell id="ojFCDxmx5VOatYl41Mf3-14" value="&lt;font style=&quot;font-size: 6px;&quot;&gt;SPOT 1&lt;/font&gt;" style="rhombus;whiteSpace=wrap;html=1;" vertex="1" parent="1">
          <mxGeometry x="370" y="560" width="40" height="40" as="geometry" />
        </mxCell>
        <mxCell id="ojFCDxmx5VOatYl41Mf3-24" style="edgeStyle=orthogonalEdgeStyle;rounded=0;orthogonalLoop=1;jettySize=auto;html=1;exitX=0.5;exitY=0;exitDx=0;exitDy=0;entryX=0.5;entryY=1;entryDx=0;entryDy=0;curved=1;endArrow=none;startFill=0;" edge="1" parent="1" source="ojFCDxmx5VOatYl41Mf3-15" target="ojFCDxmx5VOatYl41Mf3-2">
          <mxGeometry relative="1" as="geometry" />
        </mxCell>
        <mxCell id="ojFCDxmx5VOatYl41Mf3-15" value="&lt;font style=&quot;font-size: 6px;&quot;&gt;SPOT 2&lt;/font&gt;" style="rhombus;whiteSpace=wrap;html=1;" vertex="1" parent="1">
          <mxGeometry x="425" y="560" width="40" height="40" as="geometry" />
        </mxCell>
        <mxCell id="ojFCDxmx5VOatYl41Mf3-25" style="edgeStyle=orthogonalEdgeStyle;rounded=0;orthogonalLoop=1;jettySize=auto;html=1;exitX=0.5;exitY=0;exitDx=0;exitDy=0;entryX=0.625;entryY=1;entryDx=0;entryDy=0;curved=1;endArrow=none;startFill=0;" edge="1" parent="1" source="ojFCDxmx5VOatYl41Mf3-16" target="ojFCDxmx5VOatYl41Mf3-2">
          <mxGeometry relative="1" as="geometry" />
        </mxCell>
        <mxCell id="ojFCDxmx5VOatYl41Mf3-16" value="&lt;font style=&quot;font-size: 6px;&quot;&gt;SPOT N&lt;/font&gt;" style="rhombus;whiteSpace=wrap;html=1;" vertex="1" parent="1">
          <mxGeometry x="490" y="560" width="40" height="40" as="geometry" />
        </mxCell>
        <mxCell id="ojFCDxmx5VOatYl41Mf3-20" value="..." style="text;html=1;align=center;verticalAlign=middle;whiteSpace=wrap;rounded=0;" vertex="1" parent="1">
          <mxGeometry x="220" y="570" width="10" height="10" as="geometry" />
        </mxCell>
        <mxCell id="ojFCDxmx5VOatYl41Mf3-21" value="..." style="text;html=1;align=center;verticalAlign=middle;whiteSpace=wrap;rounded=0;" vertex="1" parent="1">
          <mxGeometry x="470" y="570" width="10" height="10" as="geometry" />
        </mxCell>
        <mxCell id="ojFCDxmx5VOatYl41Mf3-22" value="..." style="text;html=1;align=center;verticalAlign=middle;whiteSpace=wrap;rounded=0;" vertex="1" parent="1">
          <mxGeometry x="220" y="570" width="10" height="10" as="geometry" />
        </mxCell>
        <mxCell id="ojFCDxmx5VOatYl41Mf3-37" style="edgeStyle=orthogonalEdgeStyle;rounded=0;orthogonalLoop=1;jettySize=auto;html=1;exitX=0.5;exitY=1;exitDx=0;exitDy=0;entryX=0.188;entryY=0;entryDx=0;entryDy=0;entryPerimeter=0;endArrow=none;startFill=0;opacity=50;" edge="1" parent="1" source="ojFCDxmx5VOatYl41Mf3-7" target="ojFCDxmx5VOatYl41Mf3-4">
          <mxGeometry relative="1" as="geometry" />
        </mxCell>
        <mxCell id="ojFCDxmx5VOatYl41Mf3-38" style="edgeStyle=orthogonalEdgeStyle;rounded=0;orthogonalLoop=1;jettySize=auto;html=1;exitX=0.5;exitY=1;exitDx=0;exitDy=0;entryX=0.667;entryY=0;entryDx=0;entryDy=0;entryPerimeter=0;endArrow=none;startFill=0;opacity=50;" edge="1" parent="1" source="ojFCDxmx5VOatYl41Mf3-8" target="ojFCDxmx5VOatYl41Mf3-4">
          <mxGeometry relative="1" as="geometry" />
        </mxCell>
        <mxCell id="ojFCDxmx5VOatYl41Mf3-39" style="edgeStyle=orthogonalEdgeStyle;rounded=0;orthogonalLoop=1;jettySize=auto;html=1;exitX=0.5;exitY=0;exitDx=0;exitDy=0;entryX=0.417;entryY=1;entryDx=0;entryDy=0;entryPerimeter=0;endArrow=none;startFill=0;opacity=50;" edge="1" parent="1" source="ojFCDxmx5VOatYl41Mf3-8" target="ojFCDxmx5VOatYl41Mf3-10">
          <mxGeometry relative="1" as="geometry" />
        </mxCell>
        <mxCell id="ojFCDxmx5VOatYl41Mf3-40" style="edgeStyle=orthogonalEdgeStyle;rounded=0;orthogonalLoop=1;jettySize=auto;html=1;exitX=0.5;exitY=0;exitDx=0;exitDy=0;entryX=0.177;entryY=1;entryDx=0;entryDy=0;entryPerimeter=0;endArrow=none;startFill=0;opacity=50;" edge="1" parent="1" source="ojFCDxmx5VOatYl41Mf3-7" target="ojFCDxmx5VOatYl41Mf3-10">
          <mxGeometry relative="1" as="geometry" />
        </mxCell>
        <mxCell id="ojFCDxmx5VOatYl41Mf3-41" style="edgeStyle=orthogonalEdgeStyle;rounded=0;orthogonalLoop=1;jettySize=auto;html=1;exitX=0.5;exitY=0;exitDx=0;exitDy=0;entryX=0.312;entryY=1;entryDx=0;entryDy=0;entryPerimeter=0;endArrow=none;startFill=0;" edge="1" parent="1" source="ojFCDxmx5VOatYl41Mf3-1" target="ojFCDxmx5VOatYl41Mf3-4">
          <mxGeometry relative="1" as="geometry" />
        </mxCell>
        <mxCell id="ojFCDxmx5VOatYl41Mf3-10" value="&lt;font face=&quot;Courier New&quot;&gt;Public API&lt;/font&gt;" style="rounded=0;whiteSpace=wrap;html=1;fillColor=#fff2cc;strokeColor=#d6b656;" vertex="1" parent="1">
          <mxGeometry x="80" y="40" width="480" height="40" as="geometry" />
        </mxCell>
        <mxCell id="ojFCDxmx5VOatYl41Mf3-45" value="" style="endArrow=none;dashed=1;html=1;rounded=0;dashPattern=8 8;strokeWidth=1;" edge="1" parent="1">
          <mxGeometry width="50" height="50" relative="1" as="geometry">
            <mxPoint y="540" as="sourcePoint" />
            <mxPoint x="640" y="540" as="targetPoint" />
          </mxGeometry>
        </mxCell>
        <mxCell id="ojFCDxmx5VOatYl41Mf3-46" value="" style="endArrow=none;dashed=1;html=1;rounded=0;dashPattern=8 8;strokeWidth=1;" edge="1" parent="1">
          <mxGeometry width="50" height="50" relative="1" as="geometry">
            <mxPoint y="540" as="sourcePoint" />
            <mxPoint x="720" y="540" as="targetPoint" />
          </mxGeometry>
        </mxCell>
        <mxCell id="ojFCDxmx5VOatYl41Mf3-47" value="&lt;font face=&quot;Courier New&quot;&gt;Digital&lt;/font&gt;" style="text;html=1;align=center;verticalAlign=middle;whiteSpace=wrap;rounded=0;" vertex="1" parent="1">
          <mxGeometry x="650" y="520" width="60" height="20" as="geometry" />
        </mxCell>
        <mxCell id="ojFCDxmx5VOatYl41Mf3-48" value="&lt;font face=&quot;Courier New&quot;&gt;Physical&lt;/font&gt;" style="text;html=1;align=center;verticalAlign=middle;whiteSpace=wrap;rounded=0;" vertex="1" parent="1">
          <mxGeometry x="650" y="540" width="60" height="20" as="geometry" />
        </mxCell>
      </root>
    </mxGraphModel>
  </diagram>
</mxfile>
